<svg version="1" xmlns="http://www.w3.org/2000/svg" width="346.667" height="346.667" viewBox="0 0 260.000000 260.000000"><path d="M129.5 49.1c-28.7 4.1-50.6 21.8-55.4 44.7-1.5 7.2-1.4 17.6.3 24 4.5 16.9 15.9 25 46.2 32.8 19.7 5.1 24.9 7 28.2 10.7 5.9 6.3 2.9 17.2-6.2 23.3-14.8 9.8-42.7 7.8-69.3-5-7.6-3.7-11.5-5.1-11.8-4.3-1.4 4-6.4 35.2-5.7 35.8 1.3 1.3 18.4 5.9 29.7 8 15.8 2.9 40.2 3.6 52.4 1.5 28.2-4.9 46.8-18.8 54.3-40.3 1.9-5.6 2.3-8.9 2.3-18.3 0-10.4-.3-12.1-2.7-17.2-1.4-3.1-4.5-7.7-6.8-10.2-8.4-9.1-16.8-12.9-44.1-20.1-9.3-2.5-18-5-19.2-5.6-9.4-4.8-10.1-15-1.6-22.3 6.1-5.2 14-7.1 28.9-7 14.2.1 21.9 1.6 36.6 6.9 5.4 2 10.3 3.7 10.8 3.8 1.2.3 8-33.3 6.9-34.3-1.2-1.2-24.4-5.7-35.5-6.9-11.3-1.3-29.6-1.2-38.3 0z"/></svg>